<svg width="20" height="20" viewBox="0 0 20 16" fill="none" xmlns="http://www.w3.org/2000/svg">
<path d="M4.54357 1.00017C4.46346 0.918423 4.36802 0.853269 4.26272 0.808425C4.15741 0.763581 4.04431 0.739925 3.92986 0.738811C3.81541 0.737696 3.70186 0.759145 3.5957 0.80193C3.48955 0.844715 3.39286 0.907999 3.31117 0.988165C2.38711 1.90686 1.65411 2.99944 1.15445 4.20286C0.654788 5.40628 0.398365 6.69674 0.399971 7.99977C0.398472 9.35279 0.675076 10.6917 1.21261 11.9333C1.75015 13.175 2.53715 14.2929 3.52477 15.2178C3.69099 15.3714 3.91056 15.4542 4.13686 15.4486C4.36315 15.443 4.57835 15.3495 4.73677 15.1878C5.11597 14.8086 5.06917 14.205 4.70437 13.8558C3.91177 13.1004 3.28104 12.1918 2.85051 11.1851C2.41999 10.1784 2.19865 9.09466 2.19997 7.99977C2.19997 5.78457 3.08917 3.77577 4.53157 2.31417C4.87957 1.96017 4.91557 1.37217 4.54357 1.00017V1.00017ZM6.65677 3.11577C6.49873 2.95315 6.28267 2.85982 6.05594 2.85622C5.82921 2.85262 5.61029 2.93905 5.44717 3.09657C4.79791 3.73731 4.28256 4.50078 3.9311 5.34255C3.57964 6.18432 3.3991 7.08757 3.39997 7.99977C3.39856 8.96427 3.60008 9.91828 3.99144 10.7998C4.3828 11.6814 4.95524 12.4707 5.67157 13.1166C5.83627 13.2621 6.05064 13.3386 6.27025 13.3304C6.48987 13.3221 6.69788 13.2296 6.85117 13.0722C7.24477 12.6786 7.17157 12.0594 6.80197 11.7114C6.29534 11.2351 5.89178 10.66 5.61623 10.0216C5.34069 9.38323 5.19901 8.69509 5.19997 7.99977C5.19997 6.61977 5.74837 5.36697 6.63997 4.44777C6.98317 4.09497 7.03957 3.49617 6.65677 3.11457V3.11577ZM13.3432 3.11577C13.5012 2.95315 13.7173 2.85982 13.944 2.85622C14.1707 2.85262 14.3896 2.93905 14.5528 3.09657C15.202 3.73731 15.7174 4.50078 16.0688 5.34255C16.4203 6.18432 16.6008 7.08757 16.6 7.99977C16.6014 8.96427 16.3999 9.91828 16.0085 10.7998C15.6171 11.6814 15.0447 12.4707 14.3284 13.1166C14.1637 13.2621 13.9493 13.3386 13.7297 13.3304C13.5101 13.3221 13.3021 13.2296 13.1488 13.0722C12.7552 12.6786 12.8284 12.0594 13.198 11.7114C13.7046 11.2351 14.1082 10.66 14.3837 10.0216C14.6593 9.38323 14.8009 8.69509 14.8 7.99977C14.8 6.61977 14.2516 5.36697 13.36 4.44777C13.0168 4.09497 12.9604 3.49617 13.3432 3.11457V3.11577ZM15.4564 1.00137C15.5365 0.919624 15.6319 0.854469 15.7372 0.809625C15.8425 0.764781 15.9556 0.741125 16.0701 0.740011C16.1845 0.738897 16.2981 0.760344 16.4042 0.80313C16.5104 0.845915 16.6071 0.909199 16.6888 0.989365C17.6127 1.90792 18.3456 3.0003 18.8453 4.20351C19.3449 5.40671 19.6014 6.69694 19.6 7.99977C19.6015 9.35279 19.3249 10.6917 18.7873 11.9333C18.2498 13.175 17.4628 14.2929 16.4752 15.2178C16.3089 15.3714 16.0894 15.4542 15.8631 15.4486C15.6368 15.443 15.4216 15.3495 15.2632 15.1878C14.884 14.8086 14.9308 14.205 15.2968 13.8558C16.0892 13.1003 16.7197 12.1916 17.15 11.1849C17.5803 10.1782 17.8014 9.09457 17.8 7.99977C17.8 5.78457 16.9108 3.77577 15.4684 2.31417C15.1204 1.96017 15.0844 1.37217 15.4564 1.00017V1.00137ZM9.99997 6.19977C9.52258 6.19977 9.06474 6.38941 8.72718 6.72697C8.38961 7.06454 8.19997 7.52238 8.19997 7.99977C8.19997 8.47716 8.38961 8.93499 8.72718 9.27256C9.06474 9.61012 9.52258 9.79977 9.99997 9.79977C10.4774 9.79977 10.9352 9.61012 11.2728 9.27256C11.6103 8.93499 11.8 8.47716 11.8 7.99977C11.8 7.52238 11.6103 7.06454 11.2728 6.72697C10.9352 6.38941 10.4774 6.19977 9.99997 6.19977Z" fill="black"/>
</svg>
